<?xml version="1.0" encoding="iso-8859-1"?>
<svg height="2rem" width="2rem" version="1.1" id="Layer_1" xmlns="http://www.w3.org/2000/svg" xmlns:xlink="http://www.w3.org/1999/xlink" 
	 viewBox="0 0 511.998 511.998" xml:space="preserve">
<path style="fill:black;" d="M8.335,408.119c0,0,96.323-7.049,131.564-82.227s29.367-222.014,200.87-222.014
	c37.604,0,78.782,17.786,101.315,33.474c113.063,78.708,59.615,240.227-73.123,198.82c0,0,48.162-2.056,48.162-65.489
	s-79.414-72.83-91.625-19.97c-8.699,37.657-3.524,151.534,162.105,157.406"/>
<path style="fill:white;" d="M368.961,336.17c41.113,0,121.579-63.726,72.76-139.669c-34.136-53.107-127.382-63.844-193.751,2.525
	c-66.298,66.298-27.1,194.738-239.011,209.045c8.27-0.764,97.357-10.525,130.941-82.18
	c35.241-75.179,29.367-222.014,200.869-222.014c37.601,0,78.774,17.785,101.315,33.478
	C555.147,216.059,501.699,377.577,368.961,336.17z"/>
<path style="fill:black;" d="M401.699,342.548c94.949-7.049,121.743-137.109,23.94-205.193
	c-21.25-14.79-59.039-31.434-94.796-33.302c3.242-0.118,6.554-0.176,9.926-0.176c37.601,0,78.774,17.785,101.315,33.478
	C545.327,209.222,509.734,350.137,401.699,342.548z"/>
<path style="fill:white;" d="M487.603,408.119h-219.59c-24.667-10.239-34.422-46.235-21.218-99.847
	c14.672-59.567,43.228-91.672,85.751-98.673c25.549-4.206,45.366,4.159,58.017,12.522c-24.269-12.98-57.525-4.1-65.066,28.592
	C316.794,288.372,321.974,402.246,487.603,408.119z"/>
</svg>
